<?xml version="1.0" standalone="no"?>
<!DOCTYPE svg PUBLIC "-//W3C//DTD SVG 20010904//EN"
 "http://www.w3.org/TR/2001/REC-SVG-20010904/DTD/svg10.dtd">
<svg version="1.0" xmlns="http://www.w3.org/2000/svg"
 width="1024.000000pt" height="1024.000000pt" viewBox="0 0 1024.000000 1024.000000"
 preserveAspectRatio="xMidYMid meet">

<g transform="translate(0.000000,1024.000000) scale(0.100000,-0.100000)"
fill="#000000" stroke="none">
<path d="M2565 8704 c-195 -35 -420 -126 -595 -242 -138 -91 -289 -244 -379
-380 -70 -107 -158 -299 -185 -402 -65 -247 -61 -56 -61 -2710 0 -2638 -4
-2438 56 -2644 45 -154 122 -322 208 -451 108 -162 337 -365 516 -456 187 -96
311 -133 525 -159 112 -14 4776 -13 4898 1 185 20 313 59 490 148 128 65 221
131 337 243 200 191 337 420 414 695 66 234 61 51 61 2635 0 2329 0 2348 -21
2469 -45 262 -136 490 -274 684 -58 82 -245 261 -330 317 -206 135 -441 225
-670 258 -45 6 -933 9 -2490 9 -2041 -1 -2433 -3 -2500 -15z m3800 -1133 c295
-52 596 -211 810 -426 134 -135 218 -252 296 -410 94 -193 146 -377 169 -605
19 -194 -9 -439 -76 -650 -180 -570 -651 -971 -1234 -1049 -176 -24 -377 -22
-507 5 l-33 6 0 -79 c0 -94 -24 -150 -83 -197 l-39 -31 -154 -3 -154 -3 0
-225 c0 -240 -3 -255 -52 -301 -50 -47 -84 -53 -303 -53 l-205 0 0 -172 c0
-164 -1 -173 -25 -214 -14 -23 -42 -53 -62 -66 -37 -22 -45 -23 -305 -26
l-267 -3 -3 -249 -3 -248 -30 -44 c-18 -25 -49 -52 -75 -66 l-45 -22 -551 2
-550 3 -42 28 c-23 15 -54 46 -69 69 l-28 42 -3 430 c-2 386 -1 436 14 476 14
35 103 132 453 490 793 811 875 895 1199 1237 l172 182 -21 48 c-33 78 -76
260 -89 381 -12 107 -9 309 5 407 11 69 52 237 79 317 192 570 692 970 1296
1037 125 14 386 5 515 -18z"/>
<path d="M5825 7325 c-286 -53 -508 -167 -706 -365 -164 -164 -273 -348 -338
-570 -37 -125 -49 -221 -49 -390 1 -215 34 -370 124 -572 l43 -99 -162 -167
c-89 -92 -236 -243 -327 -337 -91 -93 -259 -267 -375 -385 -115 -118 -302
-310 -415 -425 -113 -116 -296 -302 -407 -416 l-203 -205 0 -347 0 -347 435 0
435 0 0 320 0 320 325 0 325 0 2 238 3 237 278 3 277 2 2 258 c1 141 2 268 3
282 l1 25 217 3 217 2 0 210 0 210 39 -20 c62 -31 160 -66 236 -83 85 -19 295
-39 339 -33 17 3 63 8 101 11 284 22 542 144 747 352 237 239 350 496 393 888
13 122 -30 396 -87 549 -155 423 -533 749 -973 841 -113 24 -395 29 -500 10z
m488 -279 c232 -60 447 -202 588 -388 251 -333 286 -794 91 -1183 -95 -189
-218 -318 -402 -418 -157 -87 -291 -120 -480 -120 -188 0 -305 29 -492 124
l-78 39 0 -95 0 -95 -135 0 -134 0 -3 -142 -3 -143 -87 -3 -88 -3 0 -109 0
-110 -125 0 -125 0 0 -170 0 -170 -280 0 -280 0 0 -235 0 -235 -200 0 -200 0
0 -120 0 -120 -125 0 -125 0 0 -195 0 -195 -185 0 -185 0 0 156 0 156 363 371
c685 702 1432 1474 1540 1592 26 28 47 54 47 58 0 4 -20 43 -45 86 -204 354
-230 761 -70 1100 101 213 271 384 490 491 169 83 300 111 500 105 98 -2 154
-10 228 -29z"/>
<path d="M6196 6660 c-122 -22 -249 -121 -304 -237 -24 -51 -27 -70 -27 -158
0 -92 3 -106 32 -168 80 -169 262 -268 439 -239 135 22 236 95 300 214 39 72
39 74 39 183 0 100 -3 115 -28 166 -54 110 -149 193 -257 223 -76 21 -136 26
-194 16z"/>
</g>
</svg>
